<svg xmlns="http://www.w3.org/2000/svg" viewBox="0 0 120 120">
  <path d="M24 66 C24 35 39 18 60 18 C81 18 96 35 96 66" fill="none" stroke="#0B5D7E" stroke-width="10" stroke-linecap="round"/>
  <path d="M18 72 H102" fill="none" stroke="#0B5D7E" stroke-width="10" stroke-linecap="round"/>
  <path d="M60 28 C43 48 39 57 39 69 C39 82 48 91 60 91 C72 91 81 82 81 69 C81 57 77 48 60 28Z" fill="#1FA2B4"/>
  <path d="M60 94 V108" stroke="#2E7D32" stroke-width="6" stroke-linecap="round"/>
  <path d="M59 103 C48 91 38 94 36 103 C44 110 52 111 59 103Z" fill="#2E7D32"/>
  <path d="M61 103 C72 91 82 94 84 103 C76 110 68 111 61 103Z" fill="#4F9A45"/>
</svg>
